# xmcd
#
# Track frame offsets:
# 150
# 19125
# 38474
# 58518
# 78014
# 92401
# 108493
# 122053
# 140378
# 151836
# 169544
# 183116
# 198071
# 217692
# 229825
# 240850
#
# Disc length: 3424 seconds
#
#
# Revision: 0
# Processed by: cddbd v1.4PL0 Copyright (c) Steve Scherf et al.
# Submitted via: FreeRIP 2.52 
#
DISCID=ac0d5e10
DTITLE=David Hay - Baby Doll
DYEAR=2003
DGENRE=Rock and Roll
TTITLE0=Baby Doll
TTITLE1=All My Girlfriends
TTITLE2=Save Yer Soul
TTITLE3=Hold On My Heart
TTITLE4=Six Long Years
TTITLE5=Never Mind Your Neighbors
TTITLE6=Burn The Night
TTITLE7=Bad Things
TTITLE8=Daddy's Cool
TTITLE9=Lay It On Me
TTITLE10=Go Back To Chicago
TTITLE11=Wedding Ring
TTITLE12=Holy Water
TTITLE13=Might As Well Live
TTITLE14=Junky Blue
TTITLE15=Rip It Up
EXTD=http://www.westhillsound.com
EXTT0=
EXTT1=
EXTT2=
EXTT3=
EXTT4=
EXTT5=
EXTT6=
EXTT7=
EXTT8=
EXTT9=
EXTT10=
EXTT11=
EXTT12=
EXTT13=
EXTT14=
EXTT15=
PLAYORDER=
